<svg width="24" height="24" viewBox="0 0 24 24" fill="none" xmlns="http://www.w3.org/2000/svg">
  <path d="M22.56 1.44L13.44 8.16L15.36 3.84L22.56 1.44Z" fill="#E17726"/>
  <path d="M1.44 1.44L10.44 8.28L8.64 3.84L1.44 1.44Z" fill="#E27625"/>
  <path d="M19.32 17.28L16.92 21.36L22.08 22.8L23.52 17.4L19.32 17.28Z" fill="#E27625"/>
  <path d="M0.48 17.4L1.92 22.8L7.08 21.36L4.68 17.28L0.48 17.4Z" fill="#E27625"/>
  <path d="M6.84 10.56L5.28 12.96L10.44 13.2L10.32 7.68L6.84 10.56Z" fill="#E27625"/>
  <path d="M17.16 10.56L13.56 7.56L13.44 13.2L18.72 12.96L17.16 10.56Z" fill="#E27625"/>
  <path d="M7.08 21.36L10.08 19.92L7.44 17.4L7.08 21.36Z" fill="#D5BFB2"/>
  <path d="M13.92 19.92L16.92 21.36L16.56 17.4L13.92 19.92Z" fill="#D5BFB2"/>
  <path d="M16.92 21.36L13.92 19.92L14.16 22.32L14.16 22.8L16.92 21.36Z" fill="#233447"/>
  <path d="M7.08 21.36L9.84 22.8L9.84 22.32L10.08 19.92L7.08 21.36Z" fill="#233447"/>
  <path d="M9.96 15.84L7.44 15.12L9.24 14.28L9.96 15.84Z" fill="#CC6228"/>
  <path d="M14.04 15.84L14.76 14.28L16.56 15.12L14.04 15.84Z" fill="#CC6228"/>
  <path d="M7.08 21.36L7.44 17.28L4.68 17.4L7.08 21.36Z" fill="#E27625"/>
  <path d="M16.56 17.28L16.92 21.36L19.32 17.4L16.56 17.28Z" fill="#E27625"/>
  <path d="M18.72 12.96L13.44 13.2L14.04 15.84L14.76 14.28L16.56 15.12L18.72 12.96Z" fill="#E27625"/>
  <path d="M7.44 15.12L9.24 14.28L9.96 15.84L10.44 13.2L5.28 12.96L7.44 15.12Z" fill="#E27625"/>
</svg>