<svg width="24" height="24" viewBox="0 0 24 24" fill="none" xmlns="http://www.w3.org/2000/svg">
  <path d="M5.5 9.5C8.5 6.5 13.5 6.5 16.5 9.5L17 10L18.5 8.5L18 8C14 4 8 4 4 8L3.5 8.5L5 10L5.5 9.5Z" fill="#3B99FC"/>
  <path d="M7 11C8.5 9.5 11.5 9.5 13 11L13.5 11.5L15 10L14.5 9.5C12 7 8 7 5.5 9.5L5 10L6.5 11.5L7 11Z" fill="#3B99FC"/>
  <path d="M8.5 12.5C9.5 11.5 10.5 11.5 11.5 12.5L12 13L13.5 11.5L13 11C11 9 9 9 7 11L6.5 11.5L8 13L8.5 12.5Z" fill="#3B99FC"/>
  <circle cx="12" cy="15" r="2" fill="#3B99FC"/>
</svg>